<svg x="0" y="0" width="960" height="300" viewBox="0 0 960 300" xmlns="http://www.w3.org/2000/svg" version="1.1">
<defs>
<radialGradient id="lower" cs="50%" cy="0" r="50%" fx="50%" fy="0">
<stop offset="0%" stop-color="white" stop-opacity="1"/>
<stop offset="45%" stop-color="white" stop-opacity="0.7"/>
<stop offset="90%" stop-color="white" stop-opacity="0"/>
</radialGradient>
<radialGradient id="back" cs="50%" cy="0" r="50%" fx="50%" fy="0">
<stop offset="0%" stop-color="white" stop-opacity=".5"/>
<stop offset="40%" stop-color="#4A98BE" stop-opacity=".8"/>
<stop offset="100%" stop-color="#4A98BE" stop-opacity="0"/>
</radialGradient>
<filter id="shadow" width="150%" height="150%">
<feOffset result="offOut" in="SourceGraphic" dx="0" dy="1" />
<feBlend in="SourceGraphic" in2="offOut" mode="normal"/>
</filter>
</defs>
<g> 
<rect x="0" y="0" width="960" height="300" fill="url(#back)"/>
<path filter="url(#shadow)" fill="none" stroke="url(#lower)" d="
M 480 -10 L -45 -20 M 480 -10 L -44 -11 M 480 -10 L -44 -2 M 480 -10 L -44 7 M 480 -10 L -43 16 M 480 -10 L -43 25 M 480 -10 L -42 34 M 480 -10 L -41 43 M 480 -10 L -39 53 M 480 -10 L -38 62 M 480 -10 L -37 71 M 480 -10 L -35 80 M 480 -10 L -33 89 M 480 -10 L -31 98 M 480 -10 L -29 107 M 480 -10 L -27 115 M 480 -10 L -24 124 M 480 -10 L -22 133 M 480 -10 L -19 142 M 480 -10 L -16 150 M 480 -10 L -13 159 M 480 -10 L -10 168 M 480 -10 L -6 176 M 480 -10 L -3 185 M 480 -10 L 1 193 M 480 -10 L 5 201 M 480 -10 L 9 210 M 480 -10 L 13 218 M 480 -10 L 17 226 M 480 -10 L 21 234 M 480 -10 L 26 242 M 480 -10 L 30 250 M 480 -10 L 35 258 M 480 -10 L 40 265 M 480 -10 L 45 273 M 480 -10 L 50 281 M 480 -10 L 56 288 M 480 -10 L 61 295 M 480 -10 L 67 303 M 480 -10 L 72 310 M 480 -10 L 78 317 M 480 -10 L 84 324 M 480 -10 L 90 331 M 480 -10 L 97 338 M 480 -10 L 103 344 M 480 -10 L 109 351 M 480 -10 L 116 357 M 480 -10 L 122 363 M 480 -10 L 129 370 M 480 -10 L 136 376 M 480 -10 L 143 382 M 480 -10 L 150 388 M 480 -10 L 157 393 M 480 -10 L 165 399 M 480 -10 L 172 404 M 480 -10 L 179 410 M 480 -10 L 187 415 M 480 -10 L 195 420 M 480 -10 L 202 425 M 480 -10 L 210 430 M 480 -10 L 218 434 M 480 -10 L 226 439 M 480 -10 L 234 443 M 480 -10 L 242 447 M 480 -10 L 250 451 M 480 -10 L 259 455 M 480 -10 L 267 459 M 480 -10 L 275 463 M 480 -10 L 284 466 M 480 -10 L 292 470 M 480 -10 L 301 473 M 480 -10 L 310 476 M 480 -10 L 318 479 M 480 -10 L 327 482 M 480 -10 L 336 484 M 480 -10 L 345 487 M 480 -10 L 353 489 M 480 -10 L 362 491 M 480 -10 L 371 493 M 480 -10 L 380 495 M 480 -10 L 389 497 M 480 -10 L 398 498 M 480 -10 L 407 499 M 480 -10 L 417 501 M 480 -10 L 426 502 M 480 -10 L 435 503 M 480 -10 L 444 503 M 480 -10 L 453 504 M 480 -10 L 462 504 M 480 -10 L 471 504 M 480 -10 L 480 505 M 480 -10 L 489 504 M 480 -10 L 498 504 M 480 -10 L 507 504 M 480 -10 L 516 503 M 480 -10 L 525 503 M 480 -10 L 534 502 M 480 -10 L 543 501 M 480 -10 L 553 499 M 480 -10 L 562 498 M 480 -10 L 571 497 M 480 -10 L 580 495 M 480 -10 L 589 493 M 480 -10 L 598 491 M 480 -10 L 607 489 M 480 -10 L 615 487 M 480 -10 L 624 484 M 480 -10 L 633 482 M 480 -10 L 642 479 M 480 -10 L 650 476 M 480 -10 L 659 473 M 480 -10 L 668 470 M 480 -10 L 676 466 M 480 -10 L 685 463 M 480 -10 L 693 459 M 480 -10 L 701 455 M 480 -10 L 710 451 M 480 -10 L 718 447 M 480 -10 L 726 443 M 480 -10 L 734 439 M 480 -10 L 742 434 M 480 -10 L 750 430 M 480 -10 L 758 425 M 480 -10 L 765 420 M 480 -10 L 773 415 M 480 -10 L 781 410 M 480 -10 L 788 404 M 480 -10 L 795 399 M 480 -10 L 803 393 M 480 -10 L 810 388 M 480 -10 L 817 382 M 480 -10 L 824 376 M 480 -10 L 831 370 M 480 -10 L 838 363 M 480 -10 L 844 357 M 480 -10 L 851 351 M 480 -10 L 857 344 M 480 -10 L 863 338 M 480 -10 L 870 331 M 480 -10 L 876 324 M 480 -10 L 882 317 M 480 -10 L 888 310 M 480 -10 L 893 303 M 480 -10 L 899 295 M 480 -10 L 904 288 M 480 -10 L 910 281 M 480 -10 L 915 273 M 480 -10 L 920 265 M 480 -10 L 925 258 M 480 -10 L 930 250 M 480 -10 L 934 242 M 480 -10 L 939 234 M 480 -10 L 943 226 M 480 -10 L 947 218 M 480 -10 L 951 210 M 480 -10 L 955 201 M 480 -10 L 959 193 M 480 -10 L 963 185 M 480 -10 L 966 176 M 480 -10 L 970 168 M 480 -10 L 973 159 M 480 -10 L 976 150 M 480 -10 L 979 142 M 480 -10 L 982 133 M 480 -10 L 984 124 M 480 -10 L 987 115 M 480 -10 L 989 107 M 480 -10 L 991 98 M 480 -10 L 993 89 M 480 -10 L 995 80 M 480 -10 L 997 71 M 480 -10 L 998 62 M 480 -10 L 999 53 M 480 -10 L 1001 43 M 480 -10 L 1002 34 M 480 -10 L 1003 25 M 480 -10 L 1003 16 M 480 -10 L 1004 7 M 480 -10 L 1004 -2 M 480 -10 L 1004 -11 M 480 -10 L 1005 -20
"/>
</g>
<g>
<radialGradient id="outer" cx="50%" cy="40%" r="50%">
<stop offset="0" style="stop-color:#F3E09C"/>
<stop offset="0.456" style="stop-color:#CCA349"/>
<stop offset="1" style="stop-color:#C2922E"/>
</radialGradient>
<polygon fill="url(#outer)" points="
525,35 490,35 490,0 470,0 470,35 435,35 435,55 470,55 470,125 490,125 490,55 525,55
"/>
</g>
<radialGradient id="inner" cx="50%" cy="40%" r="100%" >
<stop offset="0" stop-color="#FFFFFF" stop-opacity="1"/>
<stop offset="1" stop-color="#FDFBE1" stop-opacity="0"/>
</radialGradient>
<path opacity="0.3" fill="url(#inner)" enable-background="new" d="
M525,35 l-5,5 v10 l5,5 z
M470,0 l5,5 h10 l5,-5 z
M435,35 v20 l5,-5 v-10 z
M470,125 h20 l-5,-5 h-10 z
M520,40 h-35 v-35 h-10 v35 h-35 v10 h35 v70 h10 v-70 h35 z
"/>
<path opacity="0.6" fill="url(#inner)" enable-background="new" d="
M525,40 l-5,5 l5,5 z
M475,0 l5,5 l5,-5 z
M435,40 v10 l5,-5 z
M475,125 h10 l-5,-5 z
M525,44 h-90 v2 h90 z
M479,0 v125 h2 v-125 z
"/>
<text x="430" y="100" stroke="#FDFBE1" fill="#C2922E" font-weight="bolder" font-family="Arial" font-size="32px">&#x00391;</text>
<text x="505" y="100" stroke="#FDFBE1" fill="#C2922E" font-weight="bolder" font-family="Arial" font-size="32px">&#x003A9;</text>
</svg>
